M48
; DRILL file {KiCad 9.0.6} date 2026-01-24T22:18:06+0100
; FORMAT={-:-/ absolute / metric / decimal}
; #@! TF.CreationDate,2026-01-24T22:18:06+01:00
; #@! TF.GenerationSoftware,Kicad,Pcbnew,9.0.6
; #@! TF.FileFunction,Plated,1,2,PTH
FMAT,2
METRIC
; #@! TA.AperFunction,Plated,PTH,ViaDrill
T1C0.600
; #@! TA.AperFunction,Plated,PTH,ComponentDrill
T2C0.750
; #@! TA.AperFunction,Plated,PTH,ComponentDrill
T3C1.000
; #@! TA.AperFunction,Plated,PTH,ComponentDrill
T4C1.300
; #@! TA.AperFunction,Plated,PTH,ViaDrill
T5C1.500
%
G90
G05
T1
X144.062Y-99.5
X156.0Y-59.5
X162.0Y-59.5
T2
X115.0Y-75.0
X117.0Y-75.0
X119.0Y-75.0
X121.0Y-75.0
X139.0Y-74.5
X141.0Y-74.5
X143.0Y-74.5
X145.0Y-74.5
T3
X108.37Y-46.23
X108.37Y-48.77
X109.26Y-56.5
X109.26Y-69.05
X110.91Y-46.23
X110.91Y-48.77
X111.8Y-56.5
X111.8Y-69.05
X113.45Y-46.23
X113.45Y-48.77
X114.34Y-56.5
X114.34Y-69.05
X115.99Y-46.23
X115.99Y-48.77
X116.88Y-56.5
X116.88Y-69.05
X118.53Y-46.23
X118.53Y-48.77
X119.42Y-56.5
X119.42Y-69.05
X121.07Y-46.23
X121.07Y-48.77
X121.96Y-56.5
X121.96Y-69.05
X123.61Y-46.23
X123.61Y-48.77
X124.5Y-56.5
X124.5Y-69.05
X126.15Y-46.23
X126.15Y-48.77
X127.04Y-56.5
X127.04Y-69.05
X128.69Y-46.23
X128.69Y-48.77
X130.0Y-94.05
X131.23Y-46.23
X131.23Y-48.77
X133.22Y-56.5
X133.22Y-69.05
X133.77Y-46.23
X133.77Y-48.77
X135.0Y-94.05
X135.76Y-56.5
X135.76Y-69.05
X136.31Y-46.23
X136.31Y-48.77
X138.3Y-56.5
X138.3Y-69.05
X138.85Y-46.23
X138.85Y-48.77
X140.5Y-90.46
X140.5Y-93.0
X140.5Y-95.54
X140.84Y-56.5
X140.84Y-69.05
X141.39Y-46.23
X141.39Y-48.77
X143.38Y-56.5
X143.38Y-69.05
X143.93Y-46.23
X143.93Y-48.77
X145.0Y-90.46
X145.0Y-93.0
X145.0Y-95.54
X145.92Y-56.5
X145.92Y-69.05
X146.47Y-46.23
X146.47Y-48.77
X148.46Y-56.5
X148.46Y-69.05
X149.01Y-46.23
X149.01Y-48.77
X151.0Y-56.5
X151.0Y-69.05
X151.55Y-46.23
X151.55Y-48.77
X154.09Y-46.23
X154.09Y-48.77
X156.63Y-46.23
X156.63Y-48.77
X156.75Y-73.38
X156.75Y-75.92
X156.75Y-78.46
X156.75Y-81.0
X161.25Y-73.38
X161.25Y-75.92
X161.25Y-78.46
X161.25Y-81.0
T4
X107.5Y-84.0
X107.5Y-89.0
T5
X105.55Y-116.9
X160.7Y-117.1
M30
